<svg width="486" height="503" viewBox="0 0 486 503" fill="none" xmlns="http://www.w3.org/2000/svg">
<rect width="486" height="503" fill="#1E1E1E"/>
<path d="M479 251.5C479 386.762 373.114 496 243 496C112.886 496 7 386.762 7 251.5C7 116.238 112.886 7 243 7C373.114 7 479 116.238 479 251.5Z" fill="white" stroke="#4A4948" stroke-width="14"/>
<path d="M411 251C411 349.089 335.457 428 243 428C150.543 428 75 349.089 75 251C75 152.911 150.543 74 243 74C335.457 74 411 152.911 411 251Z" fill="white" stroke="#4A4948" stroke-width="14"/>
<path d="M133 400C133 415.756 120.85 428 106.5 428C92.1503 428 80 415.756 80 400C80 384.244 92.1503 372 106.5 372C120.85 372 133 384.244 133 400Z" fill="white" stroke="#4A4948" stroke-width="14"/>
<path d="M272 459C272 474.756 259.85 487 245.5 487C231.15 487 219 474.756 219 459C219 443.244 231.15 431 245.5 431C259.85 431 272 443.244 272 459Z" fill="white" stroke="#4A4948" stroke-width="14"/>
<path d="M272 43C272 58.7561 259.85 71 245.5 71C231.15 71 219 58.7561 219 43C219 27.2439 231.15 15 245.5 15C259.85 15 272 27.2439 272 43Z" fill="white" stroke="#4A4948" stroke-width="14"/>
<path d="M411 102C411 117.756 398.85 130 384.5 130C370.15 130 358 117.756 358 102C358 86.2439 370.15 74 384.5 74C398.85 74 411 86.2439 411 102Z" fill="white" stroke="#4A4948" stroke-width="14"/>
<path d="M128 102C128 117.756 115.85 130 101.5 130C87.1503 130 75 117.756 75 102C75 86.2439 87.1503 74 101.5 74C115.85 74 128 86.2439 128 102Z" fill="white" stroke="#4A4948" stroke-width="14"/>
<path d="M298 248.5C298 278.498 273.477 303 243 303C212.523 303 188 278.498 188 248.5C188 218.502 212.523 194 243 194C273.477 194 298 218.502 298 248.5Z" fill="white" stroke="#4A4948" stroke-width="30"/>
<path d="M411 398C411 413.756 398.85 426 384.5 426C370.15 426 358 413.756 358 398C358 382.244 370.15 370 384.5 370C398.85 370 411 382.244 411 398Z" fill="white" stroke="#4A4948" stroke-width="14"/>
<path d="M472 255C472 270.756 459.85 283 445.5 283C431.15 283 419 270.756 419 255C419 239.244 431.15 227 445.5 227C459.85 227 472 239.244 472 255Z" fill="white" stroke="#4A4948" stroke-width="14"/>
<path d="M73 255C73 270.756 60.8497 283 46.5 283C32.1503 283 20 270.756 20 255C20 239.244 32.1503 227 46.5 227C60.8497 227 73 239.244 73 255Z" fill="white" stroke="#4A4948" stroke-width="14"/>
<circle cx="46.5" cy="255.5" r="8.5" fill="#4A4948"/>
<path d="M73 171.5C73 181.443 65.3406 189 56.5 189C47.6594 189 40 181.443 40 171.5C40 161.557 47.6594 154 56.5 154C65.3406 154 73 161.557 73 171.5Z" fill="white" stroke="#4A4948" stroke-width="14"/>
<ellipse cx="56.5" cy="172" rx="5.5" ry="6" fill="#4A4948"/>
<path d="M186 54.5C186 64.4428 178.341 72 169.5 72C160.659 72 153 64.4428 153 54.5C153 44.5572 160.659 37 169.5 37C178.341 37 186 44.5572 186 54.5Z" fill="white" stroke="#4A4948" stroke-width="14"/>
<ellipse cx="169.5" cy="55" rx="5.5" ry="6" fill="#4A4948"/>
<path d="M339 59.5C339 69.4428 331.341 77 322.5 77C313.659 77 306 69.4428 306 59.5C306 49.5572 313.659 42 322.5 42C331.341 42 339 49.5572 339 59.5Z" fill="white" stroke="#4A4948" stroke-width="14"/>
<ellipse cx="322.5" cy="60" rx="5.5" ry="6" fill="#4A4948"/>
<path d="M447 172.5C447 182.443 439.341 190 430.5 190C421.659 190 414 182.443 414 172.5C414 162.557 421.659 155 430.5 155C439.341 155 447 162.557 447 172.5Z" fill="white" stroke="#4A4948" stroke-width="14"/>
<ellipse cx="430.5" cy="173" rx="5.5" ry="6" fill="#4A4948"/>
<path d="M447 331.5C447 341.443 439.341 349 430.5 349C421.659 349 414 341.443 414 331.5C414 321.557 421.659 314 430.5 314C439.341 314 447 321.557 447 331.5Z" fill="white" stroke="#4A4948" stroke-width="14"/>
<ellipse cx="430.5" cy="332" rx="5.5" ry="6" fill="#4A4948"/>
<path d="M333 446.5C333 456.443 325.341 464 316.5 464C307.659 464 300 456.443 300 446.5C300 436.557 307.659 429 316.5 429C325.341 429 333 436.557 333 446.5Z" fill="white" stroke="#4A4948" stroke-width="14"/>
<ellipse cx="316.5" cy="447" rx="5.5" ry="6" fill="#4A4948"/>
<path d="M186 446.5C186 456.443 178.341 464 169.5 464C160.659 464 153 456.443 153 446.5C153 436.557 160.659 429 169.5 429C178.341 429 186 436.557 186 446.5Z" fill="white" stroke="#4A4948" stroke-width="14"/>
<ellipse cx="169.5" cy="447" rx="5.5" ry="6" fill="#4A4948"/>
<path d="M78 337.5C78 347.443 70.3406 355 61.5 355C52.6594 355 45 347.443 45 337.5C45 327.557 52.6594 320 61.5 320C70.3406 320 78 327.557 78 337.5Z" fill="white" stroke="#4A4948" stroke-width="14"/>
<ellipse cx="61.5" cy="338" rx="5.5" ry="6" fill="#4A4948"/>
<circle cx="101.5" cy="102.5" r="8.5" fill="#4A4948"/>
<ellipse cx="243.5" cy="247.5" rx="24.5" ry="23.5" fill="#4A4948"/>
<ellipse cx="237.5" cy="241" rx="10.5" ry="10" fill="white"/>
<circle cx="245.5" cy="43.5" r="8.5" fill="#4A4948"/>
<circle cx="384.5" cy="102.5" r="8.5" fill="#4A4948"/>
<circle cx="445.5" cy="255.5" r="8.5" fill="#4A4948"/>
<circle cx="384.5" cy="397.5" r="8.5" fill="#4A4948"/>
<circle cx="245.5" cy="458.5" r="8.5" fill="#4A4948"/>
<circle cx="106.5" cy="399.5" r="8.5" fill="#4A4948"/>
<path d="M247.018 348C174.381 348 119.725 281.408 103 249C166 187 175.708 147.053 247.018 147.053C309 147.053 348 220.5 387.5 249C369.102 280.23 314.5 348 247.018 348Z" stroke="#4A4948" stroke-width="14"/>
</svg>
